<svg xmlns="http://www.w3.org/2000/svg" viewBox="0 0 117 48" fill="none">
    <path id="logo" fill="currentColor" fill-rule="evenodd" d="M24 48a24 24 0 1 0 0-48 24 24 0 0 0 0 48Zm-7.62-18.54c0-.4.32-.72.72-.72.4 0 .73-.33.73-.73v-9.3c0-.4-.33-.73-.73-.73a.72.72 0 0 1-.72-.72v-1.21a.7.7 0 1 0-1.39 0v1.19c0 .4-.32.72-.72.72-.4 0-.73.33-.73.72v9.33c0 .4.33.73.73.73.4 0 .72.32.72.72v5.52c0 .39.31.7.7.7a.7.7 0 0 0 .69-.7v-5.52ZM24 39c.42 0 .77-.34.77-.77V34.5c0-.41.33-.74.74-.74s.75-.34.75-.75v-17.1a.76.76 0 0 0-.76-.76.76.76 0 0 1-.75-.75V9.75a.75.75 0 0 0-1.51 0v4.65c0 .42-.34.75-.76.75a.75.75 0 0 0-.75.76v17.1c0 .4.33.75.75.75s.76.33.76.75v3.72c0 .43.34.77.76.77Zm9-13.85c0-.4.32-.72.72-.72.4 0 .73-.33.73-.73v-9.29c0-.4-.33-.72-.73-.72a.72.72 0 0 1-.72-.72v-1.29a.62.62 0 1 0-1.24 0v1.29c0 .4-.33.72-.73.72-.4 0-.72.32-.72.72v9.3c0 .4.32.72.72.72.4 0 .73.32.73.72v3.89a.62.62 0 0 0 1.24 0v-3.89Z" clip-rule="evenodd"/>
    <path id="label" fill="currentColor" d="M91.82 38.97c-.82 0-1.54-.13-2.17-.41a3.73 3.73 0 0 1-1.5-1.14 3.05 3.05 0 0 1-.62-1.63h2.82c.03.32.18.58.45.78.27.2.6.3.98.3.36 0 .63-.06.82-.2.2-.14.3-.32.3-.55 0-.26-.14-.46-.42-.58a7.74 7.74 0 0 0-1.35-.43c-.66-.16-1.22-.32-1.66-.49a3 3 0 0 1-1.15-.81 2.26 2.26 0 0 1-.49-1.52c0-.53.15-1.02.44-1.45.3-.44.73-.8 1.3-1.05a5.04 5.04 0 0 1 2.05-.38c1.16 0 2.08.29 2.75.86a3.36 3.36 0 0 1 1.16 2.3H92.9a1.12 1.12 0 0 0-.43-.76 1.44 1.44 0 0 0-.94-.29c-.33 0-.59.07-.76.2a.6.6 0 0 0-.27.52c0 .27.14.47.42.6.28.13.73.27 1.33.4.69.18 1.25.36 1.68.53.44.17.81.45 1.14.84.33.38.5.89.51 1.53 0 .55-.15 1.03-.46 1.47a3 3 0 0 1-1.32 1c-.57.24-1.23.36-1.98.36ZM85.53 27.14v11.7h-2.85v-11.7h2.85ZM80.68 30.9a3.45 3.45 0 0 1-1.9 3.22c-.64.35-1.44.52-2.4.52h-1.77v4.2h-2.85v-11.7h4.62c.93 0 1.72.16 2.37.48.64.33 1.13.77 1.45 1.34.32.56.48 1.21.48 1.95Zm-4.52 1.47c.55 0 .95-.12 1.22-.38.27-.25.4-.62.4-1.08 0-.47-.13-.83-.4-1.09-.27-.25-.67-.38-1.22-.38h-1.55v2.93h1.55ZM66.05 36.77h-4.37l-.7 2.07H58l4.23-11.7h3.3l4.24 11.7h-3.02l-.7-2.07Zm-.73-2.2-1.45-4.28-1.44 4.28h2.89ZM110.2 9.3a6.8 6.8 0 0 1 3.23.73 5.17 5.17 0 0 1 2.14 2.07c.5.88.76 1.9.76 3.05a6 6 0 0 1-.76 3.05 5.14 5.14 0 0 1-2.15 2.07c-.93.49-2 .73-3.22.73h-4.38V9.3h4.38Zm-.18 9.23c1.07 0 1.91-.3 2.51-.88.6-.59.9-1.42.9-2.5a3.4 3.4 0 0 0-.9-2.52 3.4 3.4 0 0 0-2.51-.9h-1.35v6.8h1.35ZM103.82 9.3V21h-2.85v-4.82h-4.44V21h-2.85V9.3h2.85v4.58h4.44V9.3h2.85ZM85.55 9.3a6.8 6.8 0 0 1 3.23.73 5.17 5.17 0 0 1 2.14 2.07c.5.88.76 1.9.76 3.05a6 6 0 0 1-.76 3.05 5.15 5.15 0 0 1-2.15 2.07c-.93.49-2 .73-3.22.73h-4.38V9.3h4.38Zm-.18 9.23c1.07 0 1.91-.3 2.51-.88.6-.59.9-1.42.9-2.5a3.4 3.4 0 0 0-.9-2.52 3.4 3.4 0 0 0-2.51-.9h-1.35v6.8h1.35ZM73.18 21.14c-1.1 0-2.1-.25-3.03-.77a5.83 5.83 0 0 1-2.98-5.23 5.83 5.83 0 0 1 2.98-5.22 6.15 6.15 0 0 1 3.03-.76c1.1 0 2.1.25 3.02.76a5.55 5.55 0 0 1 2.17 2.14c.53.9.8 1.94.8 3.08 0 1.15-.27 2.18-.8 3.1a5.7 5.7 0 0 1-2.17 2.13c-.91.52-1.92.77-3.02.77Zm0-2.6c.94 0 1.68-.31 2.24-.93.56-.62.85-1.45.85-2.47 0-1.03-.29-1.85-.85-2.47a2.85 2.85 0 0 0-2.24-.93c-.94 0-1.7.3-2.26.92a3.55 3.55 0 0 0-.84 2.48c0 1.03.28 1.86.84 2.48.56.62 1.32.92 2.26.92ZM60.85 11.58v2.37h3.82v2.2h-3.82v2.57h4.32V21H58V9.3h7.17v2.28h-4.32Z"/>
</svg>
